<svg width="26" height="25" viewBox="0 0 26 25" fill="none" xmlns="http://www.w3.org/2000/svg">
<path d="M13 24.0475H12.9825C9.75375 23.9875 0.4375 15.57 0.4375 7.59753C0.4375 3.76753 3.59375 0.405029 7.19125 0.405029C10.0537 0.405029 11.9787 2.38003 12.9987 3.81753C14.0162 2.38253 15.9412 0.405029 18.805 0.405029C22.405 0.405029 25.56 3.76753 25.56 7.59878C25.56 15.5688 16.2425 23.9863 13.0137 24.045H13V24.0475ZM7.1925 2.28128C4.5925 2.28128 2.31375 4.76628 2.31375 7.60003C2.31375 14.775 11.1062 22.095 13.0012 22.1725C14.8987 22.095 23.6887 14.7763 23.6887 7.60003C23.6887 4.76628 21.41 2.28128 18.81 2.28128C15.65 2.28128 13.885 5.95128 13.87 5.98753C13.5825 6.69003 12.425 6.69003 12.1362 5.98753C12.1187 5.95003 10.355 2.28128 7.19375 2.28128H7.1925Z" fill="#657786"/>
</svg>
